<?xml version="1.0" encoding="UTF-8"?><svg id="Layer_2" xmlns="http://www.w3.org/2000/svg" xmlns:xlink="http://www.w3.org/1999/xlink" viewBox="0 0 224.26 201.14"><defs><style>.cls-1{fill:url(#linear-gradient);}.cls-2{fill:#fff;}.cls-3{fill:#2af396;}.cls-4{fill:url(#New_Gradient_Swatch_5);}</style><linearGradient id="linear-gradient" x1="48.97" y1="72" x2="154.08" y2="72" gradientUnits="userSpaceOnUse"><stop offset="0" stop-color="#0266ff"/><stop offset="1" stop-color="#2840f1"/></linearGradient><linearGradient id="New_Gradient_Swatch_5" x1="106.29" y1="85.85" x2="185.45" y2="85.85" gradientUnits="userSpaceOnUse"><stop offset="0" stop-color="#08ace8"/><stop offset="1" stop-color="#2af396"/></linearGradient></defs><g id="Layer_1-2"><g><g><g><path class="cls-3" d="m139.34,72.85c.03.06.06.13.09.19-.03-.06-.06-.13-.09-.19"/><path class="cls-2" d="m137.93,73.78l-.08-.17,2.99-1.54c.03.06.06.12.09.19v.02s-3,1.5-3,1.5Z"/></g><path d="m10.16,192.07h-5.67v8.63H0v-27.74h10.16c6.29,0,9.44,3.1,9.44,9.31,0,3.19-.79,5.62-2.37,7.29-1.58,1.67-3.94,2.51-7.07,2.51m-5.67-3.89h5.63c3.24,0,4.86-1.97,4.86-5.91,0-1.89-.39-3.27-1.17-4.13-.78-.86-2.01-1.3-3.68-1.3h-5.63v11.34Z"/><rect x="34.06" y="172.96" width="4.49" height="27.74"/><rect x="54.34" y="187.78" width="12.11" height="4.01"/><polygon points="83.22 172.96 89.17 183.89 95.2 172.96 99.94 172.96 91.72 187.05 99.94 200.7 94.92 200.7 88.97 190.25 82.89 200.7 78.16 200.7 86.42 187.29 78.16 172.96 83.22 172.96"/><path d="m122.42,201.14c-4.05,0-6.8-1.12-8.24-3.36-1.44-2.24-2.17-5.93-2.17-11.06s.73-8.78,2.19-10.95c1.46-2.17,4.2-3.26,8.22-3.26,2.4,0,5.05.34,7.94,1.01l-.16,3.64c-2.43-.43-4.86-.65-7.29-.65s-4.08.72-4.94,2.17c-.86,1.44-1.3,4.16-1.3,8.14s.42,6.7,1.26,8.14c.84,1.44,2.47,2.17,4.9,2.17s4.89-.2,7.37-.61l.12,3.73c-2.78.59-5.41.89-7.9.89"/><polygon points="145.26 200.7 145.26 172.96 162.75 172.96 162.75 176.89 149.75 176.89 149.75 184.74 160.32 184.74 160.32 188.63 149.75 188.63 149.75 196.73 162.75 196.73 162.75 200.7 145.26 200.7"/><polygon points="193.32 200.7 177.77 200.7 177.77 172.96 182.27 172.96 182.27 196.69 193.32 196.69 193.32 200.7"/><path d="m215.27,176.44c-3.43,0-5.14,1.2-5.14,3.6,0,1.24.41,2.13,1.22,2.65.81.53,2.6,1.17,5.37,1.94,2.77.77,4.72,1.69,5.85,2.75,1.13,1.07,1.7,2.75,1.7,5.04,0,2.92-.83,5.1-2.49,6.54-1.66,1.44-3.92,2.17-6.78,2.17-2.29,0-4.83-.27-7.61-.81l-1.46-.28.45-3.6c3.64.49,6.42.73,8.34.73,3.35,0,5.02-1.48,5.02-4.45,0-1.16-.38-2.02-1.13-2.57-.76-.55-2.46-1.16-5.1-1.82-2.65-.66-4.62-1.57-5.91-2.73-1.3-1.16-1.94-3-1.94-5.51s.82-4.41,2.45-5.69c1.63-1.28,3.89-1.92,6.78-1.92,2.08,0,4.54.24,7.37.73l1.42.24-.36,3.64c-3.78-.43-6.45-.65-8.02-.65"/></g><path class="cls-1" d="m69.18,144.01c-1.62,0-2.59-.05-2.6-.06h-.13c-9.65,0-17.48-7.84-17.48-17.46V32.88c0-8.79,3.43-17.04,9.64-23.25,6.21-6.21,14.47-9.64,23.26-9.64,4.89,0,9.79,1.11,14.18,3.2l32.6,18.53c2.44,1.43,13.89,9.42,15.81,11.34,6.21,6.22,9.64,14.48,9.64,23.26,0,6.98-1.48,11.29-5.86,17.08-.02.02-2.02,2.56-4.94,5.18.04-.42.06-.85.06-1.27,0-1.44-.41-2.96-1.23-4.53-1.32-3.84-7.73-8.16-8-8.35l-1.09-.73-32.63-19.16-.1-.06c-2.8-1.44-5.36-2.14-7.86-2.14-2.29,0-4.48.58-6.69,1.78-3.81,2.07-5.91,5.92-5.91,10.84v69.2s-.46,19.17-.46,19.17c-4.17.53-7.82.64-10.2.64Z"/><path class="cls-4" d="m106.41,132.02c0-.16,0-.34,0-.52v-.16s.03-24.9.03-24.9l32.27-18.67c7.26-3.29,13.27-10.95,13.53-11.28,5.09-6.74,6.9-12.01,6.9-20.15,0-7.52-2.12-14.63-6.18-20.78l16.54,9.43c2.29,1.38,4.44,3.06,6.35,4.97l.04.04c6.18,6.21,9.58,14.46,9.57,23.23,0,8.79-3.44,17.04-9.66,23.25-2.45,2.44-5.04,4.44-7.51,5.8l-34.3,19.47-27.69,14.38.11-4.12Z"/></g></g></svg>